<?xml version="1.0" encoding="utf-8"?>
<!-- Generator: Adobe Illustrator 23.0.1, SVG Export Plug-In . SVG Version: 6.00 Build 0)  -->
<svg version="1.1" id="Layer_1" xmlns="http://www.w3.org/2000/svg" xmlns:xlink="http://www.w3.org/1999/xlink" x="0px" y="0px"
	 viewBox="0 0 74 74" style="enable-background:new 0 0 74 74;" xml:space="preserve">
<style type="text/css">
	.st0{fill:none;stroke:#000000;stroke-width:2;stroke-linecap:round;stroke-linejoin:round;stroke-miterlimit:10;}
</style>
<g>
	<g>
		<path class="st0" d="M28.4,54.9c0,4.2-3.4,7.6-7.6,7.6s-7.6-3.4-7.6-7.6s3.4-7.6,7.6-7.6S28.4,50.7,28.4,54.9z"/>
		<line class="st0" x1="20.7" y1="41.7" x2="20.7" y2="49.3"/>
		<line class="st0" x1="15.2" y1="49.8" x2="11.2" y2="45.8"/>
		<line class="st0" x1="6.8" y1="55.2" x2="14.4" y2="55.2"/>
		<line class="st0" x1="15.4" y1="60.3" x2="10.8" y2="64.9"/>
		<line class="st0" x1="20.8" y1="69.1" x2="20.8" y2="61.5"/>
		<line class="st0" x1="30.3" y1="65.1" x2="25.8" y2="60.6"/>
		<line class="st0" x1="34.3" y1="55.2" x2="26.6" y2="55.2"/>
		<line class="st0" x1="30.7" y1="45.5" x2="26.4" y2="49.8"/>
		<polyline class="st0" points="28.5,32.6 37.8,41.4 53,26.2 		"/>
	</g>
	<g>
		<path class="st0" d="M15.3,44.4c-1.2-3.6-1.8-7.4-1.8-11.3c0-6,0-12.1,0-18.1L39.7,4.9L65.1,15l0,11.8c0,0,0.3,9.4-0.8,13.9
			C61.9,52.4,53.2,62.3,42,66.2c-1,0.3-1.9,0.8-2.9,0.8c-1.8-0.5-3.6-1.1-5.3-1.9"/>
	</g>
</g>
</svg>
