<?xml version="1.0" encoding="utf-8"?>
<!-- Generator: Adobe Illustrator 23.0.1, SVG Export Plug-In . SVG Version: 6.00 Build 0)  -->
<svg version="1.1" id="Layer_1" xmlns="http://www.w3.org/2000/svg" xmlns:xlink="http://www.w3.org/1999/xlink" x="0px" y="0px"
	 viewBox="0 0 74 74" style="enable-background:new 0 0 74 74;" xml:space="preserve">
<style type="text/css">
	.st0{fill:none;stroke:#000000;stroke-width:2;stroke-linecap:round;stroke-linejoin:round;stroke-miterlimit:10;}
</style>
<g>
	<path class="st0" d="M67.97,57.33c0.36,3.74-2.44,7.06-6.19,7.29C49.38,65.4,35.7,61.17,24.16,51.9
		C13.33,43.2,6.48,29.18,4.1,16.96c-0.6-3.08,1.48-6.03,4.58-6.43l8.82-1.15c4.06-0.53,6.72,1.48,7.17,4.38l1.89,12.36
		c0.2,1.31-0.16,2.64-0.99,3.67l0,0c-1.5,1.87-1.39,4.56,0.25,6.31c1.93,2.06,4.04,4.01,6.32,5.85c2.79,2.24,5.69,4.18,8.68,5.83
		l2.05,0.79l2.83-3.69c0.94-1.22,2.37-1.97,3.91-2.05l10.53-0.51c3.55-0.17,6.6,2.47,6.94,6.01L67.97,57.33z"/>
	<g>
		<path class="st0" d="M37.22,9.81c4.84-1.05,10.79,0.42,15.78,4.43c5.45,4.38,8.23,10.52,7.69,15.83"/>
	</g>
	<g>
		<path class="st0" d="M36,17.97c3.9-0.74,8.14,0.23,11.53,2.96c3.67,2.95,5.52,7.28,5.35,11.51"/>
	</g>
</g>
</svg>
