<?xml version="1.0" encoding="utf-8"?>
<!-- Generator: Adobe Illustrator 23.0.1, SVG Export Plug-In . SVG Version: 6.00 Build 0)  -->
<svg version="1.1" id="Layer_1" xmlns="http://www.w3.org/2000/svg" xmlns:xlink="http://www.w3.org/1999/xlink" x="0px" y="0px"
	 viewBox="0 0 74 74" style="enable-background:new 0 0 74 74;" xml:space="preserve">
<style type="text/css">
	.st0{fill:none;stroke:#000000;stroke-width:2;stroke-linecap:round;stroke-linejoin:round;stroke-miterlimit:10;}
</style>
<g>
	<path class="st0" d="M33.4,14.7L33.4,14.7l-1.6,1.1c0,0-1-0.7-1-0.7"/>
	<path class="st0" d="M27.2,6.4h-4.3c-0.5,0-1,0.4-1,1v4.2c0,0.6,0.5,1,1,1l4.6,0c0.3,0.8,0.9,1.5,1.8,2c-0.8-0.5-1.4-1.2-1.8-2
		c-0.2-0.4-0.3-0.9-0.3-1.4V6.4c0,0,4.6,0,4.6,0"/>
	<path class="st0" d="M60,21.8v12.9h4.3v-2h4.4V20h-4.4v14.6H53.7h10.5v-16c0-0.4-0.3-0.7-0.7-0.7l-9.8,0L50,14.6
		c-0.6-0.5-1.3-0.8-2.1-0.8H35.5c-1.7,0-3,1.3-3,3l0,0c0,1.6,1.4,3,3,3H40c0.8,0,1.5,0.5,1.7,1.2c0.3,1.9,2.8,3.8,6.3,4.3
		c-3.5-0.5-5.9-2.4-6.3-4.3c-0.3-0.8-0.9-1.2-1.7-1.2h-4.4c-1.6,0-3-1.2-3-3c0-1.7,1.4-3,3-3l9.6,0l0.1-0.1c1-0.8,1.7-1.8,1.7-3.2
		c0-2.3-1.9-4.2-4.2-4.2H35"/>
	<path class="st0" d="M31.8,16.9L31.8,16.9c0,1.2-1.1,2.3-2.6,2.3h-5.8c-1.4,0-2.6-1-2.6-2.3l0,0c0-1.2,1.1-2.3,2.6-2.3h5.8
		C30.7,14.6,31.8,15.6,31.8,16.9z"/>
	<path class="st0" d="M29.5,20.4V23c0,0.7-0.6,1.3-1.3,1.3H27c-0.7,0-1.3-0.6-1.3-1.3v-2.6c0-0.7,0.6-1.3,1.3-1.3h1.3
		C29,19.1,29.5,19.7,29.5,20.4z"/>
	<path class="st0" d="M36.4,26.2L36.4,26.2c0,1.1-0.9,1.9-1.9,1.9h-5.3c-1.1,0-1.9-0.9-1.9-1.9l0,0c0-1.1,0.9-1.9,1.9-1.9h5.3
		C35.6,24.3,36.4,25.1,36.4,26.2z"/>
	<path class="st0" d="M33.6,19.1v4h9.3c-0.1,11,7.3,17.2,7.3,21.8v18.5c0,1.7-1.4,3.1-3.1,3.1H28.5c-1.7,0-3.1-1.4-3.1-3.1V44.9"/>
	<path class="st0" d="M45.8,43.9v3.6c0,4.5-3.6,8.1-8.1,8.1h-8.2V52c0-4.5,3.6-8.1,8.1-8.1H45.8z"/>
	<path class="st0" d="M26.6,41.2c0.8-0.8,1.9-3.4,2-5.2l0,0c-0.8-0.3-1.4-0.9-1.4-1.9c0-0.6,0.2-1.1,0.6-1.4
		c0.2-0.2,0.5-0.4,0.9-0.5c-0.4,0.1-0.7,0.3-0.9,0.5c-0.4,0.4-0.6,0.9-0.6,1.4c0,0.9,0.6,1.7,1.4,2v0c0.2,0,0.4,0.1,0.5,0.1h5.3
		c1.1,0,2-0.9,2-2c0-1-0.6-1.8-1.5-2c0.9-0.3,1.4-1,1.5-2c0-1-0.6-1.7-1.5-2c0.8,0.2,1.5,1,1.5,2c0,1-0.6,1.8-1.5,2
		c-0.1,0-0.3,0-0.5,0h-5.3c-0.1,0-0.3,0-0.4,0c-0.9-0.2-1.5-1-1.5-2c0-0.6,0.2-1.1,0.6-1.5c0.2-0.3,0.5-0.4,0.9-0.5"/>
	<line class="st0" x1="7.2" y1="2.5" x2="10.5" y2="4.4"/>
	<line class="st0" x1="14.3" y1="6.4" x2="17.8" y2="8.1"/>
	<line class="st0" x1="14.3" y1="12.4" x2="17.8" y2="12.4"/>
	<line class="st0" x1="6.4" y1="12.4" x2="10.5" y2="12.4"/>
	<line class="st0" x1="14.3" y1="19.1" x2="17.8" y2="16.9"/>
	<line class="st0" x1="8.5" y1="21.7" x2="10.5" y2="20"/>
</g>
</svg>
