<?xml version="1.0" encoding="utf-8"?>
<!-- Generator: Adobe Illustrator 23.0.1, SVG Export Plug-In . SVG Version: 6.00 Build 0)  -->
<svg version="1.1" id="Layer_1" xmlns="http://www.w3.org/2000/svg" xmlns:xlink="http://www.w3.org/1999/xlink" x="0px" y="0px"
	 viewBox="0 0 74 74" style="enable-background:new 0 0 74 74;" xml:space="preserve">
<style type="text/css">
	.st0{fill:none;stroke:#000000;stroke-width:2;stroke-linecap:round;stroke-linejoin:round;stroke-miterlimit:10;}
</style>
<g>
	<path class="st0" d="M35.1,58.2c0,2.5-2,4.5-4.5,4.5c-2.5,0-4.5-2-4.5-4.5s2-4.5,4.5-4.5C33.1,53.7,35.1,55.7,35.1,58.2z"/>
	<path class="st0" d="M35.2,15.8c0,2.5-2,4.6-4.6,4.6c-2.5,0-4.6-2-4.6-4.6c0-2.5,2-4.6,4.6-4.6C33.1,11.2,35.2,13.2,35.2,15.8z"/>
	<path class="st0" d="M30.6,20.3v4h3h4.9h3v-4v-4.4V8.6h-3h-4.9h-3v2.6c2.8,0.3,4.4,1.9,4.6,4.6C34.9,18.5,33.4,20.1,30.6,20.3z"/>
	<path class="st0" d="M41.5,8.6v15.7h-3V32c0,0.5-0.4,1-1,1h-3c-0.5,0-1-0.4-1-1v-7.6l-3,0v-4c2.8-0.2,4.3-1.8,4.6-4.6
		c-0.2-2.7-1.7-4.2-4.6-4.6V8.6h3V6c0-0.5,0.4-1,1-1h3c0.5,0,1,0.4,1,1v2.6H41.5z"/>
	<path class="st0" d="M26.5,17.8c-8.1,2.2-14,9.9-14,19c0,9.2,6.1,17,14.2,19.1c-0.8,1.3-0.9,2.7-0.2,4.2
		C15.6,58.2,7.3,48.5,7.3,36.8c0-11.7,8.3-21.4,19.3-23.3C25.8,14.9,25.8,16.4,26.5,17.8z"/>
	<path class="st0" d="M42.4,51.5v13.9H29.7l0-2.7c-2.3-0.7-3.6-2.2-3.6-4.4c0.2-2.4,1.4-3.9,3.6-4.4l0-3.4l13.6,0
		c0.6,0,1.2-0.5,1.2-1.2v-2.4c0-0.6-0.5-1.1-1.2-1.2H28.7c-0.6,0-1.1,0.5-1.1,1.2v2.4c0,0.6,0.5,1.2,1.1,1.2h13.6V51.5z"/>
	<path class="st0" d="M61.6,65.4H16.2c-0.3,0-0.6,0.3-0.6,0.6v2.4c0,0.3,0.3,0.6,0.6,0.6h50c0.3,0,0.6-0.3,0.6-0.6V66
		c0-0.3-0.3-0.6-0.6-0.6H61.6L57.5,57H42.4"/>
</g>
</svg>
