<?xml version="1.0" encoding="utf-8"?>
<!-- Generator: Adobe Illustrator 23.0.1, SVG Export Plug-In . SVG Version: 6.00 Build 0)  -->
<svg version="1.1" id="Layer_1" xmlns="http://www.w3.org/2000/svg" xmlns:xlink="http://www.w3.org/1999/xlink" x="0px" y="0px"
	 viewBox="0 0 74 74" style="enable-background:new 0 0 74 74;" xml:space="preserve">
<style type="text/css">
	.st0{fill:none;stroke:#000000;stroke-width:2;stroke-linecap:round;stroke-linejoin:round;stroke-miterlimit:10;}
</style>
<g>
	<line class="st0" x1="41.3" y1="52.9" x2="41.3" y2="50.4"/>
	<path class="st0" d="M66.9,38.8v27.6H51.4h15.5v1V68c0,1.4-1.1,2.5-2.5,2.5H43.8c-1.4,0-2.5-1.1-2.5-2.5"/>
	<polygon class="st0" points="61.9,37 61.9,42 56.7,42 56.7,47.2 51.8,47.2 51.8,42 46.6,42 46.6,37 51.8,37 51.8,31.8 56.7,31.8 
		56.7,37 	"/>
	<line class="st0" x1="46.6" y1="66.4" x2="47.7" y2="66.4"/>
	<path class="st0" d="M41.3,47.2V27.7c0-1.4,1.1-2.5,2.5-2.5H60V17H48.2v8.2h16.2c1.4,0,2.5,1.1,2.5,2.5v7.1"/>
	<polyline class="st0" points="34.2,12.5 38.1,7.7 60,7.7 56.2,7.7 56.2,17 51.8,17 51.8,7.7 	"/>
	<path class="st0" d="M38.1,42.3c0,2.9-2.4,5.3-5.3,5.3s-5.3-2.4-5.3-5.3s5.3-8.6,5.3-8.6S38.1,39.4,38.1,42.3z"/>
	<line class="st0" x1="32.3" y1="43.3" x2="34.2" y2="43.3"/>
	<line class="st0" x1="37.8" y1="22.5" x2="37.8" y2="23.8"/>
	<line class="st0" x1="37.8" y1="26.9" x2="37.8" y2="30.8"/>
	<line class="st0" x1="32.8" y1="18.7" x2="32.8" y2="20"/>
	<line class="st0" x1="32.8" y1="23.2" x2="32.8" y2="26.9"/>
	<line class="st0" x1="27.8" y1="22.5" x2="27.8" y2="23.8"/>
	<line class="st0" x1="27.8" y1="26.9" x2="27.8" y2="30.8"/>
	<path class="st0" d="M14.1,64l-2.6-0.9c-0.8-0.3-1.5-0.4-2.3-0.4H2.9"/>
	<polyline class="st0" points="47.1,61.5 33.2,70.6 17.8,65.3 16.6,64.9 	"/>
	<path class="st0" d="M2.9,51.4h4.6c0.5,0,1.1-0.2,1.5-0.4c5.7-3.3,10.7-3.3,15.3-0.6c1,0.6,2,1.5,2.5,2.6h-7.4h7.4h0
		c0,0,0.6,1.5,0.6,1.5l8.4,0c1.8,0,3.4,1.5,3.4,3.4c0,0.8-0.3,1.6-0.8,2.2c0,0.1-0.1,0.1-0.1,0.2c0,0,0,0,0,0c-0.6,0.6-1.4,1-2.3,1
		H24.1h11.8l0,0c1-0.1,1.8-0.4,2.3-1c0.1-0.1,0.1-0.1,0.2-0.2c0.5-0.5,0.7-1.3,0.8-2.2l9-5.2c3.2-1.8,7.2-1.7,10.2,0.4l0.8,0.6
		l-8.7,5.7"/>
	<line class="st0" x1="15.9" y1="52.9" x2="17" y2="52.9"/>
</g>
</svg>
