<?xml version="1.0" encoding="utf-8"?>
<!-- Generator: Adobe Illustrator 23.0.1, SVG Export Plug-In . SVG Version: 6.00 Build 0)  -->
<svg version="1.1" id="Layer_1" xmlns="http://www.w3.org/2000/svg" xmlns:xlink="http://www.w3.org/1999/xlink" x="0px" y="0px"
	 viewBox="0 0 74 74" style="enable-background:new 0 0 74 74;" xml:space="preserve">
<style type="text/css">
	.st0{fill:none;stroke:#000000;stroke-width:2;stroke-linecap:round;stroke-linejoin:round;stroke-miterlimit:10;}
</style>
<g>
	<path class="st0" d="M48.71,12.94H23.1h-1.17c-1.88,0-3.38-1.12-3.38-2.51c0-1.38,1.5-2.5,3.38-2.5h0.51h26.79"/>
	<path class="st0" d="M35.36,12.94c1.78,0,3.23-1.12,3.23-2.5v0c0-1.38-1.44-2.5-3.23-2.5"/>
	<path class="st0" d="M46.56,18.32H35.33H25.02c-0.31,0-0.6,0.03-0.87,0.1c-1.36,0.31-2.35,1.34-2.35,2.54
		c0,1.47,1.45,2.66,3.22,2.66h4.29h0.57h5.45h5.44"/>
	<path class="st0" d="M35.34,23.61c-1.78,0-3.23-1.19-3.23-2.65v0c0-1.46,1.44-2.65,3.23-2.65"/>
	<path class="st0" d="M27.85,50.01h7.53h6.76h4.63c1.78,0,3.22,1.14,3.22,2.55c0,1.18-1.03,2.17-2.41,2.45
		c-0.25,0.06-0.52,0.09-0.81,0.09H35.38H24.07"/>
	<path class="st0" d="M35.37,55.11c1.78,0,3.23-1.14,3.23-2.55v0c0-1.41-1.44-2.55-3.23-2.55"/>
	<path class="st0" d="M23.1,60.85h12.25h13.45h0.13c1.77,0,3.21,1,3.21,2.25c0,1.14-1.23,2.08-2.84,2.2
		c-0.12,0.03-0.25,0.03-0.37,0.03H35.35H22.99"/>
	<path class="st0" d="M35.35,65.33c-1.78,0-3.23-1-3.23-2.24v0c0-1.24,1.44-2.24,3.23-2.24"/>
	<path class="st0" d="M24.16,18.42c-0.68-1.28-1.05-3.27-1.05-4.76"/>
	<path class="st0" d="M53.08,24.79L41.78,36.08L52.7,47.01c3.38,3.38,5.3,8,5.3,12.8v4.47c0,2.12-1.38,4.1-3.44,4.6
		c-1.69,0.39-3.28-0.16-4.33-1.22c-0.39-0.39-0.72-0.87-0.93-1.38l-0.37-0.94"/>
	<path class="st0" d="M29.31,23.62l6.02,6.02l5.44-5.44l5.11-5.11c0.41-0.41,0.78-0.87,1.11-1.34c0.89-1.22,1.46-2.6,1.71-4.08
		c0.12-0.6,0.19-1.22,0.19-1.83v-2.1c0-0.91,0.25-1.77,0.7-2.51c0.6-1.01,1.55-1.79,2.74-2.08c1.69-0.39,3.28,0.16,4.33,1.22
		C57.49,7.17,58,8.3,58,9.56v3.36c0,2.84-0.72,5.6-2.06,8.05"/>
	<path class="st0" d="M16.75,50.27C14.96,53.93,14,57.98,14,62.13v2.31c0,1.26,0.52,2.39,1.34,3.22c1.05,1.05,2.64,1.61,4.33,1.22
		c1.36-0.33,2.43-1.32,2.99-2.56c0.29-0.64,0.45-1.32,0.45-2.04v-4.41v-0.02c0-1.4,0.25-2.76,0.7-4.06c0.6-1.73,1.59-3.32,2.89-4.62
		l1.83-1.83l6.8-6.8l7.48,7.48"/>
	<path class="st0" d="M22.45,7.93c-0.19-0.33-0.43-1.34-0.68-1.59c-1.05-1.05-2.64-1.61-4.33-1.22C15.38,5.62,14,7.6,14,9.72v2.84
		v2.39c0,4,1.59,7.83,4.41,10.66l10.47,10.47l-6.97,6.97c-1.06,1.06-2.03,2.21-2.89,3.42"/>
	<path class="st0" d="M48.81,60.85c-0.14-1.46-0.57-4.52-1.23-5.84"/>
</g>
</svg>
