<?xml version="1.0" encoding="utf-8"?>
<!-- Generator: Adobe Illustrator 23.0.1, SVG Export Plug-In . SVG Version: 6.00 Build 0)  -->
<svg version="1.1" id="Layer_1" xmlns="http://www.w3.org/2000/svg" xmlns:xlink="http://www.w3.org/1999/xlink" x="0px" y="0px"
	 viewBox="0 0 74 74" style="enable-background:new 0 0 74 74;" xml:space="preserve">
<style type="text/css">
	.st0{fill:none;stroke:#000000;stroke-width:2;stroke-linecap:round;stroke-linejoin:round;stroke-miterlimit:10;}
</style>
<g>
	<path class="st0" d="M54.3,48.3V37.2c0-1.5,0.8-2.7,2.3-2.7l0,0c1.5,0,2.7,1.2,2.7,2.7v15.6c0,0.4-0.1,0.9-0.4,1.2
		c-0.4,0.5-1,2-1,6.3H38.9c0-4.1-0.8-5.7-1.4-6.2c-0.4-0.4-0.6-0.9-0.6-1.5V27.5c0-1.4,1.1-2.5,2.5-2.5s2.5,1.1,2.5,2.5v16.7V25.3
		c0-1.4,1.1-2.5,2.5-2.5c1.4,0,2.5,1.1,2.5,2.5v15.8v-18c0-1.4,1.1-2.5,2.5-2.5c1.4,0,2.5,1.1,2.5,2.5v2.2v15.1V25.3
		c0-1.4,1.1-2.5,2.5-2.5s2.5,1.1,2.5,2.5v9.3"/>
	<path class="st0" d="M60.1,62.3V67c0,1.1-0.9,2-2,2H38.9c-1.1,0-2-0.9-2-2v-4.7c0-1.1,0.9-2,2-2H58C59.2,60.3,60.1,61.2,60.1,62.3z
		"/>
	<path class="st0" d="M31.5,53c0,2.6-2.1,4.7-4.7,4.7s-4.7-2.1-4.7-4.7s2.1-4.7,4.7-4.7C29.4,48.3,31.5,50.4,31.5,53z"/>
	<line class="st0" x1="41.9" y1="11.6" x2="41.9" y2="18.6"/>
	<path class="st0" d="M33,69H19.7c-2.2,0-4-1.8-4-4V42c0-1,0.4-1.9,1-2.6l14.5-15.4c0.7-0.7,1-1.6,1-2.6v-6.6"/>
	<path class="st0" d="M41.9,8.1v3.4c0,1.7-1.4,3.1-3.1,3.1H20.4c-1.7,0-3.1-1.4-3.1-3.1V8.1c0-1.7,1.4-3.1,3.1-3.1h18.4
		C40.5,5,41.9,6.4,41.9,8.1z"/>
	<path class="st0" d="M17.5,12.6h-3.1c-1.3,0-2.4-1.1-2.4-2.4V9.5c0-1.3,1.1-2.4,2.4-2.4h3.1"/>
	<path class="st0" d="M24.2,14.7l1.4,9c0.2,1.1-0.7,2.2-1.8,2.2l0,0c-0.9,0-1.7-0.7-1.8-1.6l-1.5-9.6"/>
</g>
</svg>
