<?xml version="1.0" encoding="utf-8"?>
<!-- Generator: Adobe Illustrator 23.0.1, SVG Export Plug-In . SVG Version: 6.00 Build 0)  -->
<svg version="1.1" id="Layer_1" xmlns="http://www.w3.org/2000/svg" xmlns:xlink="http://www.w3.org/1999/xlink" x="0px" y="0px"
	 viewBox="0 0 74 74" style="enable-background:new 0 0 74 74;" xml:space="preserve">
<style type="text/css">
	.st0{fill:none;stroke:#000000;stroke-width:2;stroke-linecap:round;stroke-linejoin:round;stroke-miterlimit:10;}
</style>
<g>
	<path class="st0" d="M70.72,36.81c0,3-1.19,5.45-2.68,5.45c-1.09,0-2.03-1.3-2.45-3.17h-2.24c-0.47,5.31-2.61,10.15-5.92,13.97
		l3.4,3.4c1.82-1.33,3.68-1.72,4.52-0.86c1.05,1.05,0.19,3.59-1.96,5.73c-2.14,2.14-4.7,3.03-5.75,1.96
		c-0.75-0.75-0.51-2.31,0.44-3.89l-3.49-3.49c-3.87,3.26-8.76,5.33-14.11,5.73v1.98c2.17,0.35,3.73,1.37,3.73,2.56
		c0,1.49-2.42,2.68-5.45,2.68c-3,0-5.45-1.19-5.45-2.68c0-1.09,1.3-2.03,3.17-2.45v-2.12c-5.36-0.47-10.2-2.63-14.04-5.96
		l-2.98,2.98c1.3,1.79,1.68,3.59,0.82,4.42c-1.05,1.07-3.59,0.19-5.73-1.96c-2.14-2.12-3.03-4.68-1.96-5.75
		c0.77-0.77,2.35-0.51,3.96,0.51l3.07-3.07c-3.26-3.89-5.33-8.78-5.73-14.14h-1.93c-0.37,2.17-1.37,3.7-2.56,3.7
		c-1.49,0-2.68-2.42-2.68-5.45c0-3,1.19-5.45,2.68-5.45c1.09,0,2.03,1.3,2.45,3.17h2.1c0.49-5.36,2.68-10.2,6.01-14.02l-3.24-3.24
		c-1.79,1.28-3.61,1.65-4.45,0.82c-1.05-1.05-0.19-3.61,1.96-5.75c2.14-2.12,4.7-3,5.75-1.96c0.77,0.77,0.51,2.35-0.51,3.96
		c0,0.02,0,0.02,0,0.02l3.35,3.33c3.89-3.21,8.78-5.29,14.14-5.66V10.1c-2.17-0.35-3.73-1.37-3.73-2.56c0-1.49,2.42-2.68,5.45-2.68
		c3,0,5.45,1.19,5.45,2.68c0,1.09-1.3,2.03-3.17,2.45v2.19c5.31,0.51,10.15,2.65,13.95,5.99l3.52-3.52
		c-1.16-1.72-1.47-3.42-0.65-4.24c1.05-1.07,3.61-0.19,5.73,1.96c2.14,2.12,3.03,4.68,1.98,5.75c-0.82,0.79-2.49,0.47-4.19-0.65
		l-3.56,3.56c3.21,3.87,5.29,8.71,5.66,14.07h2.1c0.35-2.17,1.37-3.73,2.56-3.73C69.53,31.36,70.72,33.78,70.72,36.81z"/>
	<circle class="st0" cx="29.13" cy="27.12" r="5.68"/>
	<circle class="st0" cx="45.92" cy="50.69" r="3.82"/>
	<circle class="st0" cx="54.65" cy="41.46" r="2.47"/>
</g>
</svg>
