<?xml version="1.0" encoding="utf-8"?>
<!-- Generator: Adobe Illustrator 23.0.1, SVG Export Plug-In . SVG Version: 6.00 Build 0)  -->
<svg version="1.1" id="Layer_1" xmlns="http://www.w3.org/2000/svg" xmlns:xlink="http://www.w3.org/1999/xlink" x="0px" y="0px"
	 viewBox="0 0 74 74" style="enable-background:new 0 0 74 74;" xml:space="preserve">
<style type="text/css">
	.st0{fill:none;stroke:#000000;stroke-width:2;stroke-linecap:round;stroke-linejoin:round;stroke-miterlimit:10;}
</style>
<g>
	<path class="st0" d="M43.4,25.79c3.62,2.24,6.04,6.34,6.04,11.03c0,7.1-5.55,12.86-12.39,12.86c-6.86,0-12.41-5.76-12.41-12.86
		c0-7.1,5.55-12.84,12.41-12.84c1.08,0,2.12,0.14,3.12,0.41"/>
	<path class="st0" d="M36.77,33.32c0,1.93-1.57,3.5-3.53,3.5c-1.93,0-3.5-1.57-3.5-3.5c0-1.95,1.57-3.53,3.5-3.53
		C35.2,29.79,36.77,31.37,36.77,33.32z"/>
	<path class="st0" d="M45.05,36.84c0,1.34-1.09,2.43-2.44,2.43c-1.34,0-2.43-1.09-2.43-2.43c0-1.35,1.09-2.44,2.43-2.44
		C43.96,34.4,45.05,35.49,45.05,36.84z"/>
	<path class="st0" d="M38.36,43.53c0,1.44-1.17,2.61-2.63,2.61c-1.44,0-2.61-1.17-2.61-2.61c0-1.46,1.17-2.63,2.61-2.63
		C37.19,40.9,38.36,42.07,38.36,43.53z"/>
	<path class="st0" d="M19.96,10.64c0,2.24-1.82,4.06-4.09,4.06c-2.24,0-4.06-1.82-4.06-4.06c0-2.27,1.82-4.09,4.06-4.09
		C18.13,6.55,19.96,8.38,19.96,10.64z"/>
	<path class="st0" d="M17.6,57.93c0,1.51-1.23,2.74-2.76,2.74c-1.51,0-2.74-1.23-2.74-2.74c0-1.53,1.23-2.76,2.74-2.76
		C16.36,55.16,17.6,56.39,17.6,57.93z"/>
	<path class="st0" d="M62.34,61.44c0,2.28-1.86,4.14-4.17,4.14c-2.28,0-4.14-1.86-4.14-4.14c0-2.31,1.86-4.17,4.14-4.17
		C60.48,57.27,62.34,59.13,62.34,61.44z"/>
	<path class="st0" d="M5.66,42.68C5.24,43.46,5,44.35,5,45.3c0,2.98,2.43,5.43,5.43,5.43c1.1,0,2.28,0.33,3-0.91
		c6.24-8.03,10.03-3.8,10.98-2.43c0.19,0.28,0.41,0.54,0.65,0.78c4.68,4.93-1.08,9.34-1.08,9.34c-1.38,0.68-2.25,2.25-1.87,3.98
		c0.28,1.27,1.32,2.31,2.59,2.59c2.31,0.51,4.34-1.22,4.34-3.41c0-0.23-0.06-0.49-0.14-0.76c-0.42-1.37-0.16-2.88,0.67-4.05
		c0.63-0.89,1.17-1.21,1.17-1.21c6.48-3.27,8.84,0.81,9.62,3.11c0.21,0.62,0.04,1.28-0.42,1.74c-1.29,1.3-1.92,3.27-1.39,5.36
		c0.47,1.83,1.91,3.27,3.75,3.75c3.66,0.95,6.95-1.79,6.95-5.24c0-2.41-1.56-4.43-3.73-5.17c-0.71-0.24-1.27-0.81-1.36-1.55
		c-0.36-2.81,0.52-4.14,0.52-4.14c3.64-4.9,7.01-3.86,9.01-2.38c0.27,0.2,0.44,0.48,0.55,0.79c0.48,1.34,1.77,2.29,3.28,2.29
		c2.31,0,4.09-2.21,3.36-4.6c-0.42-1.35-1.68-2.34-3.09-2.44c-0.5-0.04-0.97,0.03-1.39,0.18c-0.51,0.18-1.08,0.05-1.4-0.38
		c-4.38-5.81,0.25-7.94,2.63-8.61c0.67-0.19,1.36,0.05,1.81,0.58c0.99,1.17,2.47,1.91,4.12,1.91c0.86,0,1.67-0.2,2.39-0.55"/>
	<path class="st0" d="M67.79,37.83c1.03-1.27,1.49-3,1.03-4.84c-0.47-1.88-1.93-3.34-3.8-3.83c-2.35-0.63-4.54,0.3-5.79,1.96
		c-0.37,0.49-0.84,0.91-1.38,1.19c-4.51,2.3-5.26-2.51-5.26-2.51c-4.59-4.21,1.43-8.07,1.43-8.07c2.03-0.23,3.48-1.54,3.53-3.42
		c0.04-1.69-1.2-3.24-2.86-3.55c-2.22-0.42-4.17,1.29-4.17,3.47c-2.1,6.74-7.15,3.83-8.92,2.55c-0.42-0.31-0.92-0.49-1.44-0.53
		c-7.13-0.58-4.96-5.52-4.96-5.52c1.46-1.77,2.15-3.22,1.75-5.12c-0.38-1.8-2.18-3.78-3.96-4.23c-3.58-0.91-6.81,1.79-6.81,5.28
		c0,2.25,1.37,4.16,3.3,4.99c0.52,0.22,1.09,0.82,1.23,1.37c0.91,3.57-1.19,4.75-2.4,5.12c-0.59,0.18-1.12,0.52-1.6,0.9
		c-2.34,1.88-3.6,0.86-4.8,0.25c-0.48-0.25-0.82-0.7-0.95-1.23c-0.47-1.83-1.65-2.78-3.39-2.78c-2.19,0-3.92,2.03-3.41,4.34
		c0.35,1.59,1.87,2.72,3.5,2.68c0.28-0.01,0.54-0.05,0.8-0.13c0.02-0.02-0.02,0,0,0c4.05-0.21,2.92,5.26,2.21,6.14
		c-0.79,0.93-0.57,4.53-0.57,4.53c0.4,5.98-6.45,3.83-7.55,3.45c-0.1-0.02-0.14-0.05-0.14-0.05c-0.62-0.24-1.29-0.38-1.98-0.38
		c-0.64,0-1.26,0.11-1.83,0.31"/>
</g>
</svg>
