<?xml version="1.0" encoding="utf-8"?>
<!-- Generator: Adobe Illustrator 23.0.1, SVG Export Plug-In . SVG Version: 6.00 Build 0)  -->
<svg version="1.1" id="Layer_1" xmlns="http://www.w3.org/2000/svg" xmlns:xlink="http://www.w3.org/1999/xlink" x="0px" y="0px"
	 viewBox="0 0 74 74" style="enable-background:new 0 0 74 74;" xml:space="preserve">
<style type="text/css">
	.st0{fill:none;stroke:#000000;stroke-width:2;stroke-linecap:round;stroke-linejoin:round;stroke-miterlimit:10;}
	.st1{fill:none;stroke:#000000;stroke-width:2;stroke-miterlimit:10;}
</style>
<g>
	<path class="st0" d="M30.99,26.1v34.61H5.04V26.1c0-7.07,5.73-12.81,12.81-12.81h0.34C25.26,13.29,30.99,19.02,30.99,26.1z"/>
	<path class="st0" d="M30.99,26.1c0-7.07,5.73-12.81,12.81-12.81h0.34c7.07,0,12.81,5.73,12.81,12.81v7.65"/>
	<polyline class="st0" points="56.94,48.38 56.94,60.71 30.99,60.71 	"/>
	<rect x="36.65" y="32.33" class="st0" width="14.98" height="23.3"/>
	<rect x="10.53" y="32.33" class="st0" width="14.98" height="23.3"/>
	<line class="st0" x1="19.77" y1="43.98" x2="22.54" y2="43.98"/>
	<g>
		<line class="st0" x1="39.85" y1="43.98" x2="42.85" y2="43.98"/>
	</g>
	<g>
		<path class="st1" d="M58.8,36.76c0.67,1.89,2.06,3.3,4.2,4.19c0.03,0.01,0.03,0.06,0,0.07c-2.07,0.78-3.48,2.16-4.18,4.16
			c-0.01,0.04-0.06,0.04-0.07,0c-0.54-2.05-1.91-3.47-4.19-4.17c-0.04-0.01-0.04-0.06,0-0.07c2.04-0.84,3.42-2.25,4.18-4.18
			C58.74,36.72,58.78,36.72,58.8,36.76z"/>
	</g>
	<g>
		<path class="st1" d="M66.03,30.65c0.48,1.3,1.43,2.27,2.9,2.89c0.04,0.02,0.04,0.07,0,0.08c-1.42,0.54-2.38,1.49-2.88,2.86
			c-0.02,0.04-0.07,0.04-0.08,0c-0.38-1.4-1.33-2.37-2.89-2.87c-0.04-0.01-0.04-0.07,0-0.08c1.4-0.59,2.34-1.56,2.88-2.88
			C65.97,30.61,66.02,30.61,66.03,30.65z"/>
	</g>
	<polyline class="st0" points="56.95,26.11 31,26.18 5.04,26.27 	"/>
</g>
</svg>
