<?xml version="1.0" encoding="utf-8"?>
<!-- Generator: Adobe Illustrator 23.0.1, SVG Export Plug-In . SVG Version: 6.00 Build 0)  -->
<svg version="1.1" id="Layer_1" xmlns="http://www.w3.org/2000/svg" xmlns:xlink="http://www.w3.org/1999/xlink" x="0px" y="0px"
	 viewBox="0 0 74 74" style="enable-background:new 0 0 74 74;" xml:space="preserve">
<style type="text/css">
	.st0{fill:none;stroke:#000000;stroke-width:2;stroke-linecap:round;stroke-linejoin:round;stroke-miterlimit:10;}
</style>
<g>
	<polyline class="st0" points="21.8,69 7,69 7,29.1 21.8,29.1 21.8,69 21.8,5 49.9,5 49.9,69 49.9,29.1 65,29.1 65,69 49.9,69 
		21.8,69 	"/>
	<line class="st0" x1="39.5" y1="29.1" x2="32.9" y2="29.1"/>
	<polyline class="st0" points="28.1,69 28.1,46.2 36,46.2 36,69 36,46.2 44.2,46.2 44.2,69 	"/>
	<polygon class="st0" points="45.6,16.3 45.6,22.9 39.3,22.9 39.3,29.1 32.7,29.1 32.7,22.9 26.4,22.9 26.4,16.3 32.7,16.3 32.7,10 
		39.3,10 39.3,16.3 	"/>
	<g>
		<rect x="54.3" y="33.5" class="st0" width="7" height="4.9"/>
		<rect x="54.3" y="42.5" class="st0" width="7" height="4.9"/>
		<rect x="54.3" y="51.1" class="st0" width="7" height="4.9"/>
		<rect x="54.3" y="60.1" class="st0" width="7" height="4.9"/>
	</g>
	<g>
		<rect x="11" y="33.5" class="st0" width="7.1" height="4.9"/>
		<rect x="11" y="42.5" class="st0" width="7.1" height="4.9"/>
		<rect x="11" y="51.1" class="st0" width="7.1" height="4.9"/>
		<rect x="11" y="60.1" class="st0" width="7.1" height="4.9"/>
	</g>
</g>
</svg>
