<?xml version="1.0" encoding="utf-8"?>
<!-- Generator: Adobe Illustrator 23.0.1, SVG Export Plug-In . SVG Version: 6.00 Build 0)  -->
<svg version="1.1" id="Layer_1" xmlns="http://www.w3.org/2000/svg" xmlns:xlink="http://www.w3.org/1999/xlink" x="0px" y="0px"
	 viewBox="0 0 74 74" style="enable-background:new 0 0 74 74;" xml:space="preserve">
<style type="text/css">
	.st0{fill:none;stroke:#000000;stroke-width:2;stroke-linecap:round;stroke-linejoin:round;stroke-miterlimit:10;}
</style>
<g>
	<path class="st0" d="M45.5,54.6C45.5,54.6,45.5,54.6,45.5,54.6c12.5-8.1,16-25,7.2-37.4c-7.6-10.8-22.4-14.2-34-7.9
		C3.4,17.7-0.1,38.7,13.2,51.7c8.5,8.3,21.6,9.5,31.7,3.3C45.1,54.9,45.3,54.8,45.5,54.6c0.2,0.6,0.4,1.2,0.9,1.7l0.2,0.2
		c0.9,0.8,2.1,1.1,3.3,0.8c0.5-0.1,1-0.4,1.4-0.8l4.4-4.4c0.4-0.4,0.6-0.9,0.8-1.4c0.4-1.1,0.1-2.4-0.8-3.3l-0.2-0.2
		c-0.5-0.5-1.2-0.8-1.8-0.9c0.6,0.1,1.3,0.4,1.8,0.9l0.2,0.2c0.9,0.9,1.2,2.2,0.8,3.3l11.1,11.1c1.8,1.8,1.8,4.8,0,6.6l0,0
		c-1.8,1.8-4.8,1.8-6.6,0L49.9,57.3"/>
	<g>
		<g>
			<path class="st0" d="M23,38.9c-1.1,0.8-2.3,1.2-3.6,1.2c-3.6,0-6.6-3.3-6.6-7.3c0-1.6,0.4-3,1.2-4.2c0.6,1.1,1.8,1.7,3.4,1.8
				c-2.2,0-4-1.7-4-3.8s1.8-3.8,4-3.8c1.6,0,3,1,3.6,2.3c-0.7-1.5-2-2.2-3.7-2.3c-0.1-0.7-0.1-1.4,0.1-2.1c0.5-1.9,2.1-3.1,3.5-2.7
				s2,2.2,1.5,4.1c0.2-0.8,0.3-1.5,0.1-2.2c0-2.3,2.1-4.2,4.7-4.2s4.7,1.9,4.7,4.2v-0.7c0-1.6,1.1-3.1,2.7-3.4
				c2.2-0.5,4.1,1.2,4.1,3.3c0,0,1.7-2.8,4.8-0.4s4.5,4.8,1.3,7.4c0.6-0.7,1.7-1.2,2.8-1c1.3,0.2,2.4,1.2,2.7,2.5
				c0.4,2-1.2,3.9-3.2,3.9h2.1c1.2,0,2.1,1.3,2.1,3c0,1.1-0.4,2-0.9,2.5l0,0c-0.3,1.1-2.4,1.9-5,1.9c-2,0-3.4-1-4.1-2
				c0.7-0.5,1.2-1.3,1.2-2.3c0-0.6-0.1-1-0.4-1.5c0.3,0.5,0.4,0.9,0.4,1.5c0,1.6-1.3,2.9-2.9,2.9c-1.7,0-2.9-1.3-2.9-2.9
				c0,1.6,1.2,2.9,2.9,2.9c0.6,0,1.2-0.2,1.7-0.6c0.9,1.3,2.4,2,4.1,2c1.2,0,2.3-0.1,3.4-0.5c0,0,0.5,3.2-4,4.7l0,0
				c-0.3-0.2-0.7-0.3-1.1-0.1c0.4-0.2,0.8-0.1,1.1,0.1c1.2,0,2.2,1.3,2.2,2.9s-0.8,3-2.1,3s-2.3-1.2-2.3-2.8
				c-1.1,1.1-3.1,0.9-4.4-0.4c-0.9-0.9-1.3-2.1-1.1-3.1c0.1-0.4,0.4-0.7,0.7-0.9c0.6-0.3,1.1-0.9,1-1.4c0.1,0.5-0.4,1.1-1,1.4
				c-0.5,0.3-1.2,0.5-2,0.5c-1.7,0-3.4-0.8-3.4-1.8c0,1.8-1.9,3.3-4.3,3.3s-4.3-1.4-4.3-3.2C23.8,40.6,23.3,39.8,23,38.9
				c-0.3-0.8-0.4-1.9-0.1-2.6c0-0.2,0.2-0.3,0.3-0.5l0,0c0.3-0.3,0.4-0.8,0.4-1.3c0,0.5-0.2,0.9-0.4,1.3c-0.4,0.5-1.1,0.8-1.9,0.8
				c-1.3,0-2.3-1-2.3-2.1c0-0.5,0.2-1,0.5-1.3c-0.3,0.3-0.5,0.8-0.5,1.3c0,1.1,1,2.1,2.3,2.1s2.3-0.9,2.3-2.1"/>
		</g>
		<path class="st0" d="M24.2,28.4c0-2.4,1.9-4.3,4.3-4.3"/>
		<path class="st0" d="M29.1,37.3c1.8,0,3.2-1.4,3.2-3.1c0-0.4-0.1-0.7-0.2-1l0,0c0,0-0.1,0-0.1,0c-1.5-0.2-2.8-1-3.6-2.2
			c0.8,1.2,2.1,2,3.6,2.2c0,0,0.1,0,0.1,0c0.2,0,0.4,0,0.6,0c3,0,5.3-2.3,5.3-5.2"/>
	</g>
</g>
</svg>
